<svg width="272" height="30" viewBox="0 0 272 30" fill="none" xmlns="http://www.w3.org/2000/svg">
<path d="M13.2692 0.0971641C5.97266 0.607778 2.08008 2.09175 0.874847 4.80439C0.304804 6.12879 0.353665 8.05955 0.988856 9.28822C2.5524 12.2721 6.75443 13.2933 19.0836 13.6603C28.5626 13.9316 29.5399 14.0593 30.3868 15.0326C30.8428 15.5752 30.8917 15.8624 30.6148 16.373C30.0936 17.3304 27.5366 17.6814 20.7938 17.6814C13.2366 17.6814 11.2171 17.3144 10.4516 15.8464L10.1095 15.1762L5.14203 15.1603C-0.542117 15.1603 -0.183804 15.0486 0.174509 16.74C0.825986 19.9154 3.44818 21.6547 8.87173 22.5482C11.7057 23.011 15.1585 23.2024 20.4517 23.2024C34.2305 23.2184 39.8169 21.6068 40.9896 17.2985C41.5922 15.0805 40.843 12.8306 39.1003 11.6658C36.983 10.2297 34.7843 9.70309 28.4161 9.06482C27.8949 9.001 24.4258 8.8893 20.7123 8.79356C13.8555 8.61804 12.292 8.47443 11.3962 7.89999C10.875 7.56489 10.6633 6.89471 10.989 6.51175C11.7382 5.61818 13.9858 5.39478 21.2335 5.49053C28.6278 5.58627 29.6213 5.7937 30.2728 7.30959L30.5497 7.96381H40.7616L40.6801 6.94258C40.5498 5.60222 39.7518 4.02251 38.742 3.11298C37.1947 1.70879 34.0513 0.687562 29.947 0.256731C27.6832 0.0173806 16.0217 -0.0943162 13.2692 0.0971641Z" fill="white"/>
<path d="M81.3649 0.543948C81.2998 0.591818 81.2509 1.58113 81.2509 2.71406V4.77247H91.5117V0.416294H86.4953C83.7428 0.416294 81.4301 0.480121 81.3649 0.543948Z" fill="white"/>
<path d="M60.9085 6.12879C58.9541 6.30431 56.5762 6.83089 55.4035 7.3415C54.8661 7.58085 54.3774 7.72446 54.3286 7.67659C54.2797 7.61276 54.2309 7.35746 54.2309 7.10215V6.62345L49.1493 6.65536L44.0515 6.70323V30H54.1494L54.2309 25.8672C54.2797 23.5854 54.3612 21.6866 54.4263 21.6227C54.4752 21.5749 54.8661 21.6866 55.2895 21.8621C55.713 22.0536 56.9019 22.4046 57.928 22.6599C59.7033 23.0908 59.9802 23.1227 63.9867 23.1227C67.635 23.1227 68.4168 23.0748 70.0781 22.7397C73.9544 21.9738 76.2508 20.7451 77.5863 18.6707C78.5961 17.107 78.9382 14.5858 78.417 12.6072C78.0424 11.1711 77.5863 10.3733 76.5766 9.39991C75.013 7.88403 72.9608 7.00641 69.6546 6.46388C67.3581 6.09688 63.0258 5.92135 60.9085 6.12879ZM64.4102 10.7084C66.3809 11.2349 67.4233 11.937 67.9608 13.1338C68.6774 14.7294 68.1888 16.5804 66.7881 17.5219C65.2897 18.5271 64.3613 18.7505 61.4134 18.7665C59.0681 18.7665 58.6283 18.7186 57.6185 18.3835C55.2407 17.5697 54.3123 16.4049 54.4263 14.3305C54.5077 13.0221 54.7683 12.5753 55.9247 11.6977C56.6576 11.1392 57.8954 10.7084 59.4427 10.469C60.5828 10.2935 63.3353 10.4211 64.4102 10.7084Z" fill="white"/>
<path d="M112.636 6.11284C110.177 6.33623 107.375 6.9745 105.486 7.70851C105.242 7.82021 105.193 7.74042 105.193 7.22981V6.62345H94.9319V22.5323H105.193V18.1601C105.193 14.0114 105.209 13.7242 105.551 13.0221C106.398 11.3307 108.825 10.3892 112.294 10.4052C114.509 10.4211 115.844 10.7084 117.098 11.4105C118.027 11.9211 118.809 12.8306 119.037 13.6125C119.134 13.9795 119.216 16.0219 119.216 18.3995V22.5323H129.493L129.444 17.5538C129.395 12.7508 129.379 12.5434 128.972 11.6019C128.727 11.0275 128.174 10.2137 127.555 9.54353C126.138 8.0436 124.248 7.13407 121.268 6.55963C118.841 6.08093 115.128 5.88945 112.636 6.11284Z" fill="white"/>
<path d="M81.2509 22.5323H91.5117V6.62345H81.2509V22.5323Z" fill="white"/>
<path d="M146.308 0.0438433C141.436 0.49196 139.595 0.892062 137.656 1.88432C135.44 3.03662 134.12 4.81308 133.746 7.1977C133.452 9.05418 133.876 10.3825 135.131 11.4388C136.923 12.9432 140.442 13.5193 150.072 13.8714C153.315 13.9835 154.553 14.0955 155.172 14.3035C156.541 14.7837 156.867 15.6639 156.019 16.5921C155.254 17.4244 154.26 17.6004 149.486 17.6964C144.94 17.7924 142.17 17.6164 141.176 17.1523C140.54 16.8642 140.068 16.176 140.068 15.5839C140.068 15.2318 139.986 15.2318 136.043 15.2318C131.383 15.2318 131.758 15.0557 131.79 17.1683C131.807 18.2566 131.888 18.6727 132.246 19.3609C133.729 22.2256 137.754 23.2979 146.976 23.2979C157.388 23.2819 162.097 21.8575 163.987 18.1445C165.454 15.2638 165.079 12.383 163.075 11.0227C161.022 9.63033 156.133 8.86213 149.225 8.84613C145.95 8.83012 143.636 8.60606 142.854 8.23797C142.316 7.9659 142.202 7.82186 142.153 7.32573C142.023 5.78933 143.75 5.42124 150.577 5.53327C156.525 5.61329 157.258 5.80534 157.502 7.29372L157.616 7.91788L161.608 7.9659C164.15 7.9979 165.682 7.94989 165.796 7.83786C165.894 7.74184 165.975 7.05366 165.975 6.28546C165.975 4.66904 165.503 3.43672 164.525 2.49248C163.433 1.4362 161.282 0.635996 158.626 0.267901C157.307 0.0918551 147.693 -0.0841899 146.308 0.0438433Z" fill="white"/>
<path d="M250.019 0.571982C249.938 0.700015 249.302 4.18892 247.51 14.3035C247.331 15.3278 246.924 17.6164 246.598 19.3929L246.027 22.6257H254.011L254.077 22.2416C254.125 22.0335 254.288 21.1693 254.451 20.3051C254.728 18.7847 254.761 18.7047 255.429 18.2406C255.804 17.9685 256.162 17.7604 256.227 17.7604C256.293 17.7604 257.319 18.8487 258.525 20.1931L260.692 22.6257H269.947L268.66 21.1533C267.943 20.3531 266.183 18.3686 264.733 16.7362C263.283 15.1198 262.126 13.7594 262.158 13.6954C262.191 13.6474 263.934 12.399 266.02 10.9427C268.122 9.48629 270.322 7.93389 270.925 7.51778L272 6.74958L262.826 6.65356L259.535 8.84613C255.804 11.3268 256.032 11.3268 256.488 8.83012C257.449 3.50074 257.938 0.684011 257.938 0.571982C257.955 0.395936 250.117 0.41194 250.019 0.571982Z" fill="white"/>
<path d="M172.509 2.07637C172.46 2.23641 172.297 3.13265 172.15 4.06089C172.004 4.97312 171.841 5.94938 171.792 6.20544L171.694 6.65356H170.163C169.332 6.65356 168.647 6.71758 168.647 6.7976C168.647 6.87762 168.484 7.77385 168.305 8.78211C168.11 9.79037 167.963 10.7026 167.963 10.8146C167.963 10.9747 168.354 11.0227 169.413 11.0227C170.211 11.0227 170.863 11.1027 170.863 11.1827C170.863 11.2788 170.668 12.351 170.44 13.5834C169.397 19.1688 169.446 20.2891 170.847 21.6334C171.466 22.2096 171.955 22.4817 172.933 22.8017C174.106 23.1858 174.464 23.2179 177.544 23.2179C180.965 23.2179 184.257 22.8978 184.518 22.5617C184.664 22.3856 185.104 20.2251 185.332 18.5286L185.446 17.7124L184.958 17.8085C184.681 17.8565 183.344 17.9845 181.992 18.0965C177.967 18.4166 177.919 18.3686 178.652 14.0795L179.157 11.1187L185.903 11.0227L186.017 10.3985C186.082 10.0464 186.228 9.26223 186.359 8.62207C186.489 7.99791 186.603 7.29372 186.603 7.06967V6.65356H180.102V6.10942C180.102 5.82134 180.265 4.86109 180.444 3.99687C180.982 1.51623 181.422 1.7883 176.696 1.7883C172.933 1.7883 172.59 1.82031 172.509 2.07637Z" fill="white"/>
<path d="M200.209 6.17343C197.569 6.36548 193.593 7.02165 190.986 7.69383L190.335 7.85387L190.449 8.7341C190.66 10.3825 191.166 12.127 191.41 12.095C191.54 12.079 192.518 11.8709 193.577 11.6308C195.956 11.1027 197.585 10.8947 200.502 10.7666C205.048 10.5426 208.274 11.3268 206.743 12.271C206.14 12.6551 205.618 12.7031 200.893 12.8792C194.718 13.1032 192.73 13.4073 190.302 14.5436C188.95 15.1838 187.776 16.4001 187.467 17.4884C187.157 18.5286 187.304 20.1611 187.744 20.7372C189.064 22.4817 191.931 23.2979 196.82 23.2979C199.85 23.2979 202.685 22.7857 204.429 21.9375C205.309 21.5054 205.537 21.5374 205.732 22.1296L205.928 22.6257L209.741 22.5937L213.553 22.5457L213.83 20.8652C213.993 19.937 214.319 18.0485 214.58 16.6562C214.824 15.2798 215.101 13.6794 215.199 13.1352C215.427 11.7909 215.281 10.0464 214.857 9.23022C213.847 7.29372 211.614 6.46151 206.629 6.15743C203.826 5.98138 202.669 5.98138 200.209 6.17343ZM206.123 16.3841C205.651 17.2483 203.973 18.1925 202.001 18.6887C200.355 19.1208 197.341 19.1048 196.445 18.6727C195.875 18.4006 195.76 18.2566 195.76 17.8565C195.76 17.2003 196.347 16.8002 197.634 16.5601C198.661 16.3681 202.18 16.144 204.869 16.096C206.221 16.08 206.286 16.096 206.123 16.3841Z" fill="white"/>
<path d="M229.554 6.15743C224.943 6.52553 221.309 7.91789 219.452 9.98242C218.067 11.5188 217.057 14.2715 217.057 16.4801C217.057 20.2411 220.038 22.5457 225.66 23.1218C227.697 23.3459 231.607 23.3459 233.562 23.1218C238.711 22.5777 242.296 20.7212 243.877 17.8085C244.186 17.2483 244.431 16.7362 244.431 16.6722C244.431 16.6241 242.557 16.5761 240.259 16.5761H236.088L235.632 17.1523C235.371 17.4884 234.719 17.9525 234.035 18.2886C232.894 18.8487 232.878 18.8487 230.401 18.8487C228.137 18.8487 227.843 18.8167 227.11 18.4486C225.823 17.8245 225.53 17.2803 225.53 15.5679C225.53 14.3356 225.595 13.9995 226.002 13.1833C226.963 11.2628 228.691 10.4625 231.852 10.4465C234.524 10.4465 236.007 11.0387 236.577 12.399L236.772 12.8792L240.895 12.8472L245.033 12.7992L245.082 12.271C245.147 11.5348 244.479 9.9184 243.779 9.15021C242.508 7.77385 240.927 7.02165 238.19 6.50952C236.202 6.12542 231.933 5.94938 229.554 6.15743Z" fill="white"/>
</svg>
